<!-- Generated by IcoMoon.io -->
<svg version="1.1" xmlns="http://www.w3.org/2000/svg" width="1024" height="1024" viewBox="0 0 1024 1024">
<title></title>
<g id="icomoon-ignore">
</g>
<path d="M786.922 715.687c20.035 20.035 20.035 51.2 0 71.235-10.017 10.017-22.261 14.47-35.617 14.47s-25.6-4.452-35.617-14.47l-203.687-203.687-203.687 203.687c-10.017 10.017-22.261 14.47-35.617 14.47s-25.6-4.452-35.617-14.47c-20.035-20.035-20.035-51.2 0-71.235l203.687-203.687-203.687-203.687c-20.035-20.035-20.035-51.2 0-71.235s51.2-20.035 71.235 0l203.687 203.687 203.687-203.687c20.035-20.035 51.2-20.035 71.235 0s20.035 51.2 0 71.235l-203.687 203.687 203.687 203.687z"></path>
</svg>
